<svg xmlns="http://www.w3.org/2000/svg" width="800" height="500" viewBox="0 0 800 500"><rect width="800" height="500" fill="#eaf0f4"/><g fill="none" stroke="#cbd9e2"><ellipse cx="400" cy="375" rx="260" ry="75"/><ellipse cx="400" cy="375" rx="180" ry="50"/><path d="M130 375H690M400 285V470"/></g><g stroke="#6a899e" fill="#c6d5df" stroke-width="3"><path d="M260 350L300 325L355 350L315 380Z"/><path d="M260 350V385L315 415L355 385V350L315 380Z"/><rect x="285" y="240" width="38" height="110" rx="14"/><path d="M304 255L387 175L405 194L324 275Z"/><path d="M389 177L484 210L476 232L395 200Z"/></g><g fill="#f8fafc" stroke="#476b85" stroke-width="4"><circle cx="306" cy="258" r="18"/><circle cx="394" cy="188" r="17"/><circle cx="481" cy="221" r="12"/></g><path d="M489 227L509 243L493 263M509 243L529 233" fill="none" stroke="#476b85" stroke-width="5"/><path d="M507 248Q590 175 617 290" fill="none" stroke="#879fb0" stroke-dasharray="6 6" stroke-width="2"/><path d="M578 298L613 278L649 298L613 320Z" fill="#8ba6b8"/><path d="M578 298V336L613 357L649 336V298L613 320Z" fill="#b7cad6" stroke="#6a899e" stroke-width="2"/><text x="28" y="475" fill="#718a9b" font-family="monospace" font-size="14">Manipulation / illustrative preview</text></svg>
